<mxfile host="app.diagrams.net" agent="Mozilla/5.0 (Windows NT 10.0; Win64; x64) AppleWebKit/537.36 (KHTML, like Gecko) Chrome/137.0.0.0 Safari/537.36" version="27.1.6">
  <diagram name="PÃ¡gina-1" id="b9jtvTzB6RetFzxJ-6F9">
    <mxGraphModel dx="1639" dy="882" grid="1" gridSize="10" guides="1" tooltips="1" connect="1" arrows="1" fold="1" page="1" pageScale="1" pageWidth="827" pageHeight="1169" math="0" shadow="0">
      <root>
        <mxCell id="0" />
        <mxCell id="1" parent="0" />
        <mxCell id="LcIqJ8CEiDiD4LZCDy4y-1" value="" style="rounded=0;whiteSpace=wrap;html=1;" parent="1" vertex="1">
          <mxGeometry x="354" y="590" width="120" height="60" as="geometry" />
        </mxCell>
        <mxCell id="LcIqJ8CEiDiD4LZCDy4y-2" value="" style="rounded=0;whiteSpace=wrap;html=1;" parent="1" vertex="1">
          <mxGeometry x="60" y="595" width="120" height="60" as="geometry" />
        </mxCell>
        <mxCell id="LcIqJ8CEiDiD4LZCDy4y-3" value="" style="rounded=0;whiteSpace=wrap;html=1;" parent="1" vertex="1">
          <mxGeometry x="680" y="590" width="120" height="60" as="geometry" />
        </mxCell>
        <mxCell id="LcIqJ8CEiDiD4LZCDy4y-4" value="" style="rounded=0;whiteSpace=wrap;html=1;" parent="1" vertex="1">
          <mxGeometry x="680" y="250" width="120" height="60" as="geometry" />
        </mxCell>
        <mxCell id="LcIqJ8CEiDiD4LZCDy4y-5" value="Hotel" style="rounded=0;whiteSpace=wrap;html=1;" parent="1" vertex="1">
          <mxGeometry x="360" y="250" width="120" height="60" as="geometry" />
        </mxCell>
        <mxCell id="LcIqJ8CEiDiD4LZCDy4y-6" value="&lt;font style=&quot;vertical-align: inherit;&quot;&gt;&lt;font style=&quot;vertical-align: inherit;&quot;&gt;Funcionario&lt;/font&gt;&lt;/font&gt;" style="rounded=0;whiteSpace=wrap;html=1;" parent="1" vertex="1">
          <mxGeometry x="65" y="250" width="130" height="60" as="geometry" />
        </mxCell>
        <mxCell id="LcIqJ8CEiDiD4LZCDy4y-11" value="" style="rhombus;whiteSpace=wrap;html=1;" parent="1" vertex="1">
          <mxGeometry x="530" y="580" width="80" height="80" as="geometry" />
        </mxCell>
        <mxCell id="LcIqJ8CEiDiD4LZCDy4y-13" value="Possui" style="rhombus;whiteSpace=wrap;html=1;" parent="1" vertex="1">
          <mxGeometry x="540" y="240" width="80" height="80" as="geometry" />
        </mxCell>
        <mxCell id="LcIqJ8CEiDiD4LZCDy4y-30" value="Nome" style="text;html=1;align=center;verticalAlign=middle;whiteSpace=wrap;rounded=0;" parent="1" vertex="1">
          <mxGeometry x="85" y="350" width="60" height="30" as="geometry" />
        </mxCell>
        <mxCell id="LcIqJ8CEiDiD4LZCDy4y-32" value="Pagamento" style="text;html=1;align=center;verticalAlign=middle;whiteSpace=wrap;rounded=0;" parent="1" vertex="1">
          <mxGeometry x="710" y="605" width="60" height="30" as="geometry" />
        </mxCell>
        <mxCell id="LcIqJ8CEiDiD4LZCDy4y-33" value="Gera" style="text;html=1;align=center;verticalAlign=middle;whiteSpace=wrap;rounded=0;" parent="1" vertex="1">
          <mxGeometry x="540" y="605" width="60" height="30" as="geometry" />
        </mxCell>
        <mxCell id="LcIqJ8CEiDiD4LZCDy4y-36" value="Reserva" style="text;html=1;align=center;verticalAlign=middle;whiteSpace=wrap;rounded=0;" parent="1" vertex="1">
          <mxGeometry x="384" y="605" width="60" height="30" as="geometry" />
        </mxCell>
        <mxCell id="LcIqJ8CEiDiD4LZCDy4y-41" value="Hospede" style="text;html=1;align=center;verticalAlign=middle;whiteSpace=wrap;rounded=0;" parent="1" vertex="1">
          <mxGeometry x="85" y="605" width="60" height="30" as="geometry" />
        </mxCell>
        <mxCell id="LcIqJ8CEiDiD4LZCDy4y-83" value="" style="endArrow=none;html=1;rounded=0;" parent="1" edge="1">
          <mxGeometry width="50" height="50" relative="1" as="geometry">
            <mxPoint x="185" y="550" as="sourcePoint" />
            <mxPoint x="185" y="550" as="targetPoint" />
          </mxGeometry>
        </mxCell>
        <mxCell id="LcIqJ8CEiDiD4LZCDy4y-85" value="" style="endArrow=none;html=1;rounded=0;" parent="1" edge="1">
          <mxGeometry width="50" height="50" relative="1" as="geometry">
            <mxPoint x="85" y="550" as="sourcePoint" />
            <mxPoint x="85" y="550" as="targetPoint" />
          </mxGeometry>
        </mxCell>
        <mxCell id="LcIqJ8CEiDiD4LZCDy4y-87" value="" style="endArrow=none;html=1;rounded=0;" parent="1" source="LcIqJ8CEiDiD4LZCDy4y-12" edge="1">
          <mxGeometry width="50" height="50" relative="1" as="geometry">
            <mxPoint x="190" y="615" as="sourcePoint" />
            <mxPoint x="356" y="625" as="targetPoint" />
          </mxGeometry>
        </mxCell>
        <mxCell id="LcIqJ8CEiDiD4LZCDy4y-88" value="" style="endArrow=none;html=1;rounded=0;exitX=1;exitY=0.5;exitDx=0;exitDy=0;" parent="1" source="LcIqJ8CEiDiD4LZCDy4y-2" target="LcIqJ8CEiDiD4LZCDy4y-12" edge="1">
          <mxGeometry width="50" height="50" relative="1" as="geometry">
            <mxPoint x="190" y="615" as="sourcePoint" />
            <mxPoint x="260" y="615" as="targetPoint" />
          </mxGeometry>
        </mxCell>
        <mxCell id="LcIqJ8CEiDiD4LZCDy4y-12" value="Faz" style="rhombus;whiteSpace=wrap;html=1;" parent="1" vertex="1">
          <mxGeometry x="230" y="585" width="80" height="80" as="geometry" />
        </mxCell>
        <mxCell id="LcIqJ8CEiDiD4LZCDy4y-95" value="" style="endArrow=none;html=1;rounded=0;entryX=0;entryY=0.5;entryDx=0;entryDy=0;exitX=1;exitY=0.5;exitDx=0;exitDy=0;" parent="1" source="LcIqJ8CEiDiD4LZCDy4y-13" target="LcIqJ8CEiDiD4LZCDy4y-4" edge="1">
          <mxGeometry width="50" height="50" relative="1" as="geometry">
            <mxPoint x="630" y="320" as="sourcePoint" />
            <mxPoint x="690" y="280" as="targetPoint" />
          </mxGeometry>
        </mxCell>
        <mxCell id="LcIqJ8CEiDiD4LZCDy4y-96" value="" style="endArrow=none;html=1;rounded=0;entryX=0;entryY=0.5;entryDx=0;entryDy=0;exitX=1;exitY=0.5;exitDx=0;exitDy=0;" parent="1" source="LcIqJ8CEiDiD4LZCDy4y-5" target="LcIqJ8CEiDiD4LZCDy4y-13" edge="1">
          <mxGeometry width="50" height="50" relative="1" as="geometry">
            <mxPoint x="474" y="300" as="sourcePoint" />
            <mxPoint x="524" y="250" as="targetPoint" />
          </mxGeometry>
        </mxCell>
        <mxCell id="LcIqJ8CEiDiD4LZCDy4y-100" value="" style="endArrow=none;html=1;rounded=0;startArrow=oval;startFill=1;" parent="1" edge="1">
          <mxGeometry width="50" height="50" relative="1" as="geometry">
            <mxPoint x="80" y="335" as="sourcePoint" />
            <mxPoint x="10" y="334.5" as="targetPoint" />
          </mxGeometry>
        </mxCell>
        <mxCell id="LcIqJ8CEiDiD4LZCDy4y-101" value="" style="endArrow=none;html=1;rounded=0;startArrow=oval;startFill=0;" parent="1" edge="1">
          <mxGeometry width="50" height="50" relative="1" as="geometry">
            <mxPoint x="80" y="365" as="sourcePoint" />
            <mxPoint x="10" y="365" as="targetPoint" />
          </mxGeometry>
        </mxCell>
        <mxCell id="LcIqJ8CEiDiD4LZCDy4y-102" value="" style="endArrow=none;html=1;rounded=0;startArrow=oval;startFill=0;" parent="1" edge="1">
          <mxGeometry width="50" height="50" relative="1" as="geometry">
            <mxPoint x="80" y="394.5" as="sourcePoint" />
            <mxPoint x="10" y="394.5" as="targetPoint" />
          </mxGeometry>
        </mxCell>
        <mxCell id="LcIqJ8CEiDiD4LZCDy4y-103" value="" style="endArrow=none;html=1;rounded=0;startArrow=oval;startFill=0;" parent="1" edge="1">
          <mxGeometry width="50" height="50" relative="1" as="geometry">
            <mxPoint x="80" y="420" as="sourcePoint" />
            <mxPoint x="10" y="420" as="targetPoint" />
          </mxGeometry>
        </mxCell>
        <mxCell id="LcIqJ8CEiDiD4LZCDy4y-104" value="" style="endArrow=none;html=1;rounded=0;startArrow=oval;startFill=0;" parent="1" edge="1">
          <mxGeometry width="50" height="50" relative="1" as="geometry">
            <mxPoint x="80" y="445" as="sourcePoint" />
            <mxPoint x="10" y="445" as="targetPoint" />
          </mxGeometry>
        </mxCell>
        <mxCell id="LcIqJ8CEiDiD4LZCDy4y-105" value="Email" style="text;html=1;align=center;verticalAlign=middle;whiteSpace=wrap;rounded=0;" parent="1" vertex="1">
          <mxGeometry x="85" y="395" width="60" height="50" as="geometry" />
        </mxCell>
        <mxCell id="LcIqJ8CEiDiD4LZCDy4y-106" value="Senha" style="text;html=1;align=center;verticalAlign=middle;whiteSpace=wrap;rounded=0;" parent="1" vertex="1">
          <mxGeometry x="85" y="430" width="60" height="30" as="geometry" />
        </mxCell>
        <mxCell id="LcIqJ8CEiDiD4LZCDy4y-107" value="Telefone" style="text;html=1;align=center;verticalAlign=middle;whiteSpace=wrap;rounded=0;" parent="1" vertex="1">
          <mxGeometry x="90" y="380" width="60" height="30" as="geometry" />
        </mxCell>
        <mxCell id="LcIqJ8CEiDiD4LZCDy4y-110" value="CPF (PK)" style="text;html=1;align=center;verticalAlign=middle;whiteSpace=wrap;rounded=0;" parent="1" vertex="1">
          <mxGeometry x="90" y="320" width="60" height="30" as="geometry" />
        </mxCell>
        <mxCell id="LcIqJ8CEiDiD4LZCDy4y-114" value="" style="endArrow=none;html=1;rounded=0;" parent="1" edge="1">
          <mxGeometry width="50" height="50" relative="1" as="geometry">
            <mxPoint x="10" y="445" as="sourcePoint" />
            <mxPoint x="10" y="290" as="targetPoint" />
          </mxGeometry>
        </mxCell>
        <mxCell id="LcIqJ8CEiDiD4LZCDy4y-115" value="" style="endArrow=none;html=1;rounded=0;" parent="1" edge="1">
          <mxGeometry width="50" height="50" relative="1" as="geometry">
            <mxPoint x="10" y="290" as="sourcePoint" />
            <mxPoint x="65" y="290" as="targetPoint" />
          </mxGeometry>
        </mxCell>
        <mxCell id="LcIqJ8CEiDiD4LZCDy4y-117" value="" style="endArrow=none;html=1;rounded=0;exitX=0.985;exitY=0.65;exitDx=0;exitDy=0;exitPerimeter=0;entryX=0;entryY=0.617;entryDx=0;entryDy=0;entryPerimeter=0;" parent="1" source="LcIqJ8CEiDiD4LZCDy4y-6" target="LcIqJ8CEiDiD4LZCDy4y-5" edge="1">
          <mxGeometry width="50" height="50" relative="1" as="geometry">
            <mxPoint x="310" y="320" as="sourcePoint" />
            <mxPoint x="330" y="250" as="targetPoint" />
            <Array as="points">
              <mxPoint x="300" y="287" />
            </Array>
          </mxGeometry>
        </mxCell>
        <mxCell id="LcIqJ8CEiDiD4LZCDy4y-118" value="Traballha em" style="text;html=1;align=center;verticalAlign=middle;resizable=0;points=[];autosize=1;strokeColor=none;fillColor=none;" parent="1" vertex="1">
          <mxGeometry x="230" y="260" width="90" height="30" as="geometry" />
        </mxCell>
        <mxCell id="LcIqJ8CEiDiD4LZCDy4y-120" value="Quarto" style="text;html=1;align=center;verticalAlign=middle;whiteSpace=wrap;rounded=0;" parent="1" vertex="1">
          <mxGeometry x="710" y="265" width="60" height="30" as="geometry" />
        </mxCell>
        <mxCell id="LcIqJ8CEiDiD4LZCDy4y-123" value="" style="endArrow=none;html=1;rounded=0;startArrow=oval;startFill=1;entryX=1;entryY=1;entryDx=0;entryDy=0;" parent="1" target="LcIqJ8CEiDiD4LZCDy4y-4" edge="1">
          <mxGeometry width="50" height="50" relative="1" as="geometry">
            <mxPoint x="930" y="310" as="sourcePoint" />
            <mxPoint x="860" y="309.5" as="targetPoint" />
          </mxGeometry>
        </mxCell>
        <mxCell id="LcIqJ8CEiDiD4LZCDy4y-124" value="" style="endArrow=none;html=1;rounded=0;startArrow=oval;startFill=0;" parent="1" edge="1">
          <mxGeometry width="50" height="50" relative="1" as="geometry">
            <mxPoint x="930" y="345" as="sourcePoint" />
            <mxPoint x="860" y="345" as="targetPoint" />
          </mxGeometry>
        </mxCell>
        <mxCell id="LcIqJ8CEiDiD4LZCDy4y-125" value="" style="endArrow=none;html=1;rounded=0;startArrow=oval;startFill=0;" parent="1" edge="1">
          <mxGeometry width="50" height="50" relative="1" as="geometry">
            <mxPoint x="930" y="379.5" as="sourcePoint" />
            <mxPoint x="860" y="379.5" as="targetPoint" />
          </mxGeometry>
        </mxCell>
        <mxCell id="LcIqJ8CEiDiD4LZCDy4y-126" value="" style="endArrow=none;html=1;rounded=0;startArrow=oval;startFill=0;" parent="1" edge="1">
          <mxGeometry width="50" height="50" relative="1" as="geometry">
            <mxPoint x="930" y="409.5" as="sourcePoint" />
            <mxPoint x="860" y="409.5" as="targetPoint" />
          </mxGeometry>
        </mxCell>
        <mxCell id="LcIqJ8CEiDiD4LZCDy4y-127" value="" style="endArrow=none;html=1;rounded=0;startArrow=oval;startFill=0;" parent="1" edge="1">
          <mxGeometry width="50" height="50" relative="1" as="geometry">
            <mxPoint x="930" y="444.5" as="sourcePoint" />
            <mxPoint x="860" y="444.5" as="targetPoint" />
            <Array as="points">
              <mxPoint x="900" y="444.5" />
            </Array>
          </mxGeometry>
        </mxCell>
        <mxCell id="LcIqJ8CEiDiD4LZCDy4y-134" value="Quarto_id (FK)" style="text;html=1;align=left;verticalAlign=middle;resizable=0;points=[];autosize=1;strokeColor=none;fillColor=none;" parent="1" vertex="1">
          <mxGeometry x="955" y="295" width="100" height="30" as="geometry" />
        </mxCell>
        <mxCell id="LcIqJ8CEiDiD4LZCDy4y-135" value="NÃºmero de leitos" style="text;whiteSpace=wrap;align=left;" parent="1" vertex="1">
          <mxGeometry x="955" y="335" width="110" height="40" as="geometry" />
        </mxCell>
        <mxCell id="LcIqJ8CEiDiD4LZCDy4y-136" value="Tipo (standard, luxo, suÃ­te)" style="text;html=1;align=left;verticalAlign=middle;resizable=0;points=[];autosize=1;strokeColor=none;fillColor=none;" parent="1" vertex="1">
          <mxGeometry x="955" y="365" width="170" height="30" as="geometry" />
        </mxCell>
        <mxCell id="LcIqJ8CEiDiD4LZCDy4y-137" value="PreÃ§o diaria" style="text;html=1;align=left;verticalAlign=middle;resizable=0;points=[];autosize=1;strokeColor=none;fillColor=none;" parent="1" vertex="1">
          <mxGeometry x="955" y="395" width="90" height="30" as="geometry" />
        </mxCell>
        <mxCell id="LcIqJ8CEiDiD4LZCDy4y-138" value="Status (disponivel, ocupado, manutencao)" style="text;html=1;align=center;verticalAlign=middle;resizable=0;points=[];autosize=1;strokeColor=none;fillColor=none;" parent="1" vertex="1">
          <mxGeometry x="945" y="430" width="250" height="30" as="geometry" />
        </mxCell>
        <mxCell id="LcIqJ8CEiDiD4LZCDy4y-148" value="" style="endArrow=none;html=1;rounded=0;startArrow=oval;startFill=1;" parent="1" edge="1">
          <mxGeometry width="50" height="50" relative="1" as="geometry">
            <mxPoint x="470" y="50" as="sourcePoint" />
            <mxPoint x="390" y="50" as="targetPoint" />
          </mxGeometry>
        </mxCell>
        <mxCell id="LcIqJ8CEiDiD4LZCDy4y-149" value="" style="endArrow=none;html=1;rounded=0;startArrow=oval;startFill=0;" parent="1" edge="1">
          <mxGeometry width="50" height="50" relative="1" as="geometry">
            <mxPoint x="470" y="144.5" as="sourcePoint" />
            <mxPoint x="390" y="144.5" as="targetPoint" />
          </mxGeometry>
        </mxCell>
        <mxCell id="LcIqJ8CEiDiD4LZCDy4y-150" value="" style="endArrow=none;html=1;rounded=0;startArrow=oval;startFill=0;" parent="1" edge="1">
          <mxGeometry width="50" height="50" relative="1" as="geometry">
            <mxPoint x="470" y="174.5" as="sourcePoint" />
            <mxPoint x="390" y="174.5" as="targetPoint" />
            <Array as="points">
              <mxPoint x="430" y="174.5" />
            </Array>
          </mxGeometry>
        </mxCell>
        <mxCell id="LcIqJ8CEiDiD4LZCDy4y-151" value="" style="endArrow=none;html=1;rounded=0;startArrow=oval;startFill=0;" parent="1" edge="1">
          <mxGeometry width="50" height="50" relative="1" as="geometry">
            <mxPoint x="470" y="114.5" as="sourcePoint" />
            <mxPoint x="390" y="114.5" as="targetPoint" />
          </mxGeometry>
        </mxCell>
        <mxCell id="LcIqJ8CEiDiD4LZCDy4y-152" value="" style="endArrow=none;html=1;rounded=0;startArrow=oval;startFill=0;" parent="1" edge="1">
          <mxGeometry width="50" height="50" relative="1" as="geometry">
            <mxPoint x="470" y="84.5" as="sourcePoint" />
            <mxPoint x="390" y="84.5" as="targetPoint" />
          </mxGeometry>
        </mxCell>
        <mxCell id="LcIqJ8CEiDiD4LZCDy4y-153" value="&lt;strong data-start=&quot;353&quot; data-end=&quot;365&quot;&gt;Hotel_id&lt;/strong&gt; (PK)" style="text;whiteSpace=wrap;html=1;" parent="1" vertex="1">
          <mxGeometry x="490" y="40" width="110" height="40" as="geometry" />
        </mxCell>
        <mxCell id="LcIqJ8CEiDiD4LZCDy4y-154" value="&lt;b&gt;Nome&lt;/b&gt;" style="text;whiteSpace=wrap;html=1;" parent="1" vertex="1">
          <mxGeometry x="490" y="70" width="110" height="40" as="geometry" />
        </mxCell>
        <mxCell id="LcIqJ8CEiDiD4LZCDy4y-155" value="&lt;b&gt;Categoria&lt;/b&gt;" style="text;whiteSpace=wrap;html=1;" parent="1" vertex="1">
          <mxGeometry x="490" y="100" width="110" height="40" as="geometry" />
        </mxCell>
        <mxCell id="LcIqJ8CEiDiD4LZCDy4y-156" value="&lt;b&gt;Telefne&lt;/b&gt;" style="text;whiteSpace=wrap;html=1;" parent="1" vertex="1">
          <mxGeometry x="490" y="130" width="110" height="40" as="geometry" />
        </mxCell>
        <mxCell id="LcIqJ8CEiDiD4LZCDy4y-157" value="&lt;b&gt;Email&lt;/b&gt;" style="text;whiteSpace=wrap;html=1;" parent="1" vertex="1">
          <mxGeometry x="490" y="160" width="110" height="40" as="geometry" />
        </mxCell>
        <mxCell id="LcIqJ8CEiDiD4LZCDy4y-159" value="" style="endArrow=none;html=1;rounded=0;startArrow=oval;startFill=0;" parent="1" edge="1">
          <mxGeometry width="50" height="50" relative="1" as="geometry">
            <mxPoint x="470" y="202.5" as="sourcePoint" />
            <mxPoint x="390" y="202.5" as="targetPoint" />
            <Array as="points">
              <mxPoint x="430" y="202.5" />
            </Array>
          </mxGeometry>
        </mxCell>
        <mxCell id="LcIqJ8CEiDiD4LZCDy4y-160" value="EndereÃ§o" style="text;html=1;align=center;verticalAlign=middle;resizable=0;points=[];autosize=1;strokeColor=none;fillColor=none;" parent="1" vertex="1">
          <mxGeometry x="480" y="188" width="70" height="30" as="geometry" />
        </mxCell>
        <mxCell id="LcIqJ8CEiDiD4LZCDy4y-161" value="" style="endArrow=none;html=1;rounded=0;startArrow=oval;startFill=0;" parent="1" edge="1">
          <mxGeometry width="50" height="50" relative="1" as="geometry">
            <mxPoint x="690" y="24.5" as="sourcePoint" />
            <mxPoint x="610" y="24.5" as="targetPoint" />
          </mxGeometry>
        </mxCell>
        <mxCell id="LcIqJ8CEiDiD4LZCDy4y-162" value="" style="endArrow=none;html=1;rounded=0;startArrow=oval;startFill=0;" parent="1" edge="1">
          <mxGeometry width="50" height="50" relative="1" as="geometry">
            <mxPoint x="690" y="114.5" as="sourcePoint" />
            <mxPoint x="610" y="114.5" as="targetPoint" />
          </mxGeometry>
        </mxCell>
        <mxCell id="LcIqJ8CEiDiD4LZCDy4y-163" value="" style="endArrow=none;html=1;rounded=0;startArrow=oval;startFill=0;" parent="1" edge="1">
          <mxGeometry width="50" height="50" relative="1" as="geometry">
            <mxPoint x="690" y="144.5" as="sourcePoint" />
            <mxPoint x="610" y="144.5" as="targetPoint" />
            <Array as="points">
              <mxPoint x="650" y="144.5" />
            </Array>
          </mxGeometry>
        </mxCell>
        <mxCell id="LcIqJ8CEiDiD4LZCDy4y-164" value="" style="endArrow=none;html=1;rounded=0;startArrow=oval;startFill=0;" parent="1" edge="1">
          <mxGeometry width="50" height="50" relative="1" as="geometry">
            <mxPoint x="690" y="84.5" as="sourcePoint" />
            <mxPoint x="610" y="84.5" as="targetPoint" />
          </mxGeometry>
        </mxCell>
        <mxCell id="LcIqJ8CEiDiD4LZCDy4y-165" value="" style="endArrow=none;html=1;rounded=0;startArrow=oval;startFill=0;" parent="1" edge="1">
          <mxGeometry width="50" height="50" relative="1" as="geometry">
            <mxPoint x="690" y="54.5" as="sourcePoint" />
            <mxPoint x="610" y="54.5" as="targetPoint" />
          </mxGeometry>
        </mxCell>
        <mxCell id="LcIqJ8CEiDiD4LZCDy4y-166" value="" style="endArrow=none;html=1;rounded=0;startArrow=oval;startFill=0;" parent="1" edge="1">
          <mxGeometry width="50" height="50" relative="1" as="geometry">
            <mxPoint x="690" y="170" as="sourcePoint" />
            <mxPoint x="610" y="170" as="targetPoint" />
            <Array as="points">
              <mxPoint x="650" y="170" />
            </Array>
          </mxGeometry>
        </mxCell>
        <mxCell id="LcIqJ8CEiDiD4LZCDy4y-171" value="Rua" style="text;html=1;align=center;verticalAlign=middle;resizable=0;points=[];autosize=1;strokeColor=none;fillColor=none;" parent="1" vertex="1">
          <mxGeometry x="710" y="10" width="50" height="30" as="geometry" />
        </mxCell>
        <mxCell id="LcIqJ8CEiDiD4LZCDy4y-178" value="CEp" style="text;html=1;align=center;verticalAlign=middle;resizable=0;points=[];autosize=1;strokeColor=none;fillColor=none;" parent="1" vertex="1">
          <mxGeometry x="710" y="130" width="50" height="30" as="geometry" />
        </mxCell>
        <mxCell id="LcIqJ8CEiDiD4LZCDy4y-179" value="Bairro" style="text;html=1;align=center;verticalAlign=middle;resizable=0;points=[];autosize=1;strokeColor=none;fillColor=none;" parent="1" vertex="1">
          <mxGeometry x="710" y="100" width="60" height="30" as="geometry" />
        </mxCell>
        <mxCell id="LcIqJ8CEiDiD4LZCDy4y-180" value="Complemento" style="text;html=1;align=center;verticalAlign=middle;resizable=0;points=[];autosize=1;strokeColor=none;fillColor=none;" parent="1" vertex="1">
          <mxGeometry x="710" y="70" width="100" height="30" as="geometry" />
        </mxCell>
        <mxCell id="LcIqJ8CEiDiD4LZCDy4y-181" value="Numero" style="text;html=1;align=center;verticalAlign=middle;resizable=0;points=[];autosize=1;strokeColor=none;fillColor=none;" parent="1" vertex="1">
          <mxGeometry x="710" y="40" width="70" height="30" as="geometry" />
        </mxCell>
        <mxCell id="LcIqJ8CEiDiD4LZCDy4y-184" value="Estado" style="text;html=1;align=center;verticalAlign=middle;resizable=0;points=[];autosize=1;strokeColor=none;fillColor=none;" parent="1" vertex="1">
          <mxGeometry x="710" y="188" width="60" height="30" as="geometry" />
        </mxCell>
        <mxCell id="LcIqJ8CEiDiD4LZCDy4y-185" value="Cidade" style="text;html=1;align=center;verticalAlign=middle;resizable=0;points=[];autosize=1;strokeColor=none;fillColor=none;" parent="1" vertex="1">
          <mxGeometry x="710" y="158" width="60" height="30" as="geometry" />
        </mxCell>
        <mxCell id="LcIqJ8CEiDiD4LZCDy4y-186" value="" style="endArrow=none;html=1;rounded=0;startArrow=oval;startFill=0;entryX=0.971;entryY=0.433;entryDx=0;entryDy=0;entryPerimeter=0;" parent="1" target="LcIqJ8CEiDiD4LZCDy4y-160" edge="1">
          <mxGeometry width="50" height="50" relative="1" as="geometry">
            <mxPoint x="690" y="202.5" as="sourcePoint" />
            <mxPoint x="610" y="203" as="targetPoint" />
            <Array as="points">
              <mxPoint x="650" y="202.5" />
            </Array>
          </mxGeometry>
        </mxCell>
        <mxCell id="LcIqJ8CEiDiD4LZCDy4y-187" value="" style="endArrow=none;html=1;rounded=0;" parent="1" edge="1">
          <mxGeometry width="50" height="50" relative="1" as="geometry">
            <mxPoint x="390" y="250" as="sourcePoint" />
            <mxPoint x="390" y="50" as="targetPoint" />
          </mxGeometry>
        </mxCell>
        <mxCell id="LcIqJ8CEiDiD4LZCDy4y-188" value="" style="endArrow=none;html=1;rounded=0;" parent="1" edge="1">
          <mxGeometry width="50" height="50" relative="1" as="geometry">
            <mxPoint x="610" y="200" as="sourcePoint" />
            <mxPoint x="610" y="25" as="targetPoint" />
          </mxGeometry>
        </mxCell>
        <mxCell id="LcIqJ8CEiDiD4LZCDy4y-192" value="Faz" style="rhombus;whiteSpace=wrap;html=1;" parent="1" vertex="1">
          <mxGeometry x="700" y="405" width="80" height="80" as="geometry" />
        </mxCell>
        <mxCell id="LcIqJ8CEiDiD4LZCDy4y-193" value="" style="endArrow=none;html=1;rounded=0;" parent="1" edge="1">
          <mxGeometry width="50" height="50" relative="1" as="geometry">
            <mxPoint x="860" y="445" as="sourcePoint" />
            <mxPoint x="860" y="310" as="targetPoint" />
          </mxGeometry>
        </mxCell>
        <mxCell id="LcIqJ8CEiDiD4LZCDy4y-196" value="" style="endArrow=none;html=1;rounded=0;entryX=0.5;entryY=1;entryDx=0;entryDy=0;exitX=0.5;exitY=0;exitDx=0;exitDy=0;" parent="1" source="LcIqJ8CEiDiD4LZCDy4y-192" target="LcIqJ8CEiDiD4LZCDy4y-4" edge="1">
          <mxGeometry width="50" height="50" relative="1" as="geometry">
            <mxPoint x="739.5" y="405" as="sourcePoint" />
            <mxPoint x="739.5" y="335" as="targetPoint" />
          </mxGeometry>
        </mxCell>
        <mxCell id="LcIqJ8CEiDiD4LZCDy4y-198" value="" style="endArrow=none;html=1;rounded=0;entryX=0.5;entryY=1;entryDx=0;entryDy=0;exitX=0.5;exitY=0;exitDx=0;exitDy=0;" parent="1" source="LcIqJ8CEiDiD4LZCDy4y-3" target="LcIqJ8CEiDiD4LZCDy4y-192" edge="1">
          <mxGeometry width="50" height="50" relative="1" as="geometry">
            <mxPoint x="630" y="530" as="sourcePoint" />
            <mxPoint x="680" y="480" as="targetPoint" />
          </mxGeometry>
        </mxCell>
        <mxCell id="LcIqJ8CEiDiD4LZCDy4y-199" value="" style="endArrow=none;html=1;rounded=0;entryX=0;entryY=0.5;entryDx=0;entryDy=0;exitX=1;exitY=0.5;exitDx=0;exitDy=0;" parent="1" source="LcIqJ8CEiDiD4LZCDy4y-11" target="LcIqJ8CEiDiD4LZCDy4y-3" edge="1">
          <mxGeometry width="50" height="50" relative="1" as="geometry">
            <mxPoint x="630" y="530" as="sourcePoint" />
            <mxPoint x="680" y="480" as="targetPoint" />
          </mxGeometry>
        </mxCell>
        <mxCell id="LcIqJ8CEiDiD4LZCDy4y-200" value="" style="endArrow=none;html=1;rounded=0;entryX=0;entryY=0.5;entryDx=0;entryDy=0;exitX=1;exitY=0.5;exitDx=0;exitDy=0;" parent="1" source="LcIqJ8CEiDiD4LZCDy4y-1" target="LcIqJ8CEiDiD4LZCDy4y-11" edge="1">
          <mxGeometry width="50" height="50" relative="1" as="geometry">
            <mxPoint x="470" y="630" as="sourcePoint" />
            <mxPoint x="520" y="580" as="targetPoint" />
          </mxGeometry>
        </mxCell>
        <mxCell id="LcIqJ8CEiDiD4LZCDy4y-201" value="Nome" style="text;html=1;align=center;verticalAlign=middle;whiteSpace=wrap;rounded=0;" parent="1" vertex="1">
          <mxGeometry x="140" y="760" width="60" height="30" as="geometry" />
        </mxCell>
        <mxCell id="LcIqJ8CEiDiD4LZCDy4y-202" value="" style="endArrow=none;html=1;rounded=0;startArrow=oval;startFill=1;entryX=1;entryY=1;entryDx=0;entryDy=0;" parent="1" edge="1">
          <mxGeometry width="50" height="50" relative="1" as="geometry">
            <mxPoint x="130" y="745" as="sourcePoint" />
            <mxPoint x="60" y="745" as="targetPoint" />
          </mxGeometry>
        </mxCell>
        <mxCell id="LcIqJ8CEiDiD4LZCDy4y-203" value="" style="endArrow=none;html=1;rounded=0;startArrow=oval;startFill=0;" parent="1" edge="1">
          <mxGeometry width="50" height="50" relative="1" as="geometry">
            <mxPoint x="130" y="774.5" as="sourcePoint" />
            <mxPoint x="60" y="774.5" as="targetPoint" />
          </mxGeometry>
        </mxCell>
        <mxCell id="LcIqJ8CEiDiD4LZCDy4y-204" value="" style="endArrow=none;html=1;rounded=0;startArrow=oval;startFill=0;" parent="1" edge="1">
          <mxGeometry width="50" height="50" relative="1" as="geometry">
            <mxPoint x="130" y="805" as="sourcePoint" />
            <mxPoint x="60" y="805" as="targetPoint" />
          </mxGeometry>
        </mxCell>
        <mxCell id="LcIqJ8CEiDiD4LZCDy4y-205" value="" style="endArrow=none;html=1;rounded=0;startArrow=oval;startFill=0;" parent="1" edge="1">
          <mxGeometry width="50" height="50" relative="1" as="geometry">
            <mxPoint x="130" y="839.5" as="sourcePoint" />
            <mxPoint x="60" y="839.5" as="targetPoint" />
          </mxGeometry>
        </mxCell>
        <mxCell id="LcIqJ8CEiDiD4LZCDy4y-206" value="" style="endArrow=none;html=1;rounded=0;startArrow=oval;startFill=0;" parent="1" edge="1">
          <mxGeometry width="50" height="50" relative="1" as="geometry">
            <mxPoint x="130" y="869.5" as="sourcePoint" />
            <mxPoint x="60" y="869.5" as="targetPoint" />
            <Array as="points">
              <mxPoint x="93" y="870" />
            </Array>
          </mxGeometry>
        </mxCell>
        <mxCell id="LcIqJ8CEiDiD4LZCDy4y-207" value="Email" style="text;html=1;align=center;verticalAlign=middle;whiteSpace=wrap;rounded=0;" parent="1" vertex="1">
          <mxGeometry x="140" y="815" width="60" height="50" as="geometry" />
        </mxCell>
        <mxCell id="LcIqJ8CEiDiD4LZCDy4y-208" value="EndereÃ§o" style="text;html=1;align=center;verticalAlign=middle;whiteSpace=wrap;rounded=0;" parent="1" vertex="1">
          <mxGeometry x="145" y="855" width="60" height="30" as="geometry" />
        </mxCell>
        <mxCell id="LcIqJ8CEiDiD4LZCDy4y-209" value="Telefone" style="text;html=1;align=center;verticalAlign=middle;whiteSpace=wrap;rounded=0;" parent="1" vertex="1">
          <mxGeometry x="145" y="790" width="60" height="30" as="geometry" />
        </mxCell>
        <mxCell id="LcIqJ8CEiDiD4LZCDy4y-210" value="" style="endArrow=none;html=1;rounded=0;" parent="1" edge="1">
          <mxGeometry width="50" height="50" relative="1" as="geometry">
            <mxPoint x="60" y="865" as="sourcePoint" />
            <mxPoint x="60" y="745" as="targetPoint" />
          </mxGeometry>
        </mxCell>
        <mxCell id="LcIqJ8CEiDiD4LZCDy4y-211" value="Cpf(PK)" style="text;html=1;align=center;verticalAlign=middle;resizable=0;points=[];autosize=1;strokeColor=none;fillColor=none;" parent="1" vertex="1">
          <mxGeometry x="140" y="730" width="70" height="30" as="geometry" />
        </mxCell>
        <mxCell id="LcIqJ8CEiDiD4LZCDy4y-240" value="Data de entrada" style="text;html=1;align=center;verticalAlign=middle;whiteSpace=wrap;rounded=0;" parent="1" vertex="1">
          <mxGeometry x="423.5" y="735.5" width="121" height="30" as="geometry" />
        </mxCell>
        <mxCell id="LcIqJ8CEiDiD4LZCDy4y-241" value="" style="endArrow=none;html=1;rounded=0;startArrow=oval;startFill=1;" parent="1" edge="1">
          <mxGeometry width="50" height="50" relative="1" as="geometry">
            <mxPoint x="424" y="720.5" as="sourcePoint" />
            <mxPoint x="354" y="720" as="targetPoint" />
          </mxGeometry>
        </mxCell>
        <mxCell id="LcIqJ8CEiDiD4LZCDy4y-242" value="" style="endArrow=none;html=1;rounded=0;startArrow=oval;startFill=0;" parent="1" edge="1">
          <mxGeometry width="50" height="50" relative="1" as="geometry">
            <mxPoint x="424" y="750.5" as="sourcePoint" />
            <mxPoint x="354" y="750.5" as="targetPoint" />
          </mxGeometry>
        </mxCell>
        <mxCell id="LcIqJ8CEiDiD4LZCDy4y-243" value="" style="endArrow=none;html=1;rounded=0;startArrow=oval;startFill=0;" parent="1" edge="1">
          <mxGeometry width="50" height="50" relative="1" as="geometry">
            <mxPoint x="424" y="780" as="sourcePoint" />
            <mxPoint x="354" y="780" as="targetPoint" />
          </mxGeometry>
        </mxCell>
        <mxCell id="LcIqJ8CEiDiD4LZCDy4y-244" value="" style="endArrow=none;html=1;rounded=0;startArrow=oval;startFill=0;" parent="1" edge="1">
          <mxGeometry width="50" height="50" relative="1" as="geometry">
            <mxPoint x="424" y="805.5" as="sourcePoint" />
            <mxPoint x="354" y="805.5" as="targetPoint" />
          </mxGeometry>
        </mxCell>
        <mxCell id="LcIqJ8CEiDiD4LZCDy4y-246" value="Status(ativa,cancelda, concluida)" style="text;html=1;align=center;verticalAlign=middle;whiteSpace=wrap;rounded=0;" parent="1" vertex="1">
          <mxGeometry x="423.5" y="780" width="216.5" height="50" as="geometry" />
        </mxCell>
        <mxCell id="LcIqJ8CEiDiD4LZCDy4y-248" value="Data de Saida" style="text;html=1;align=center;verticalAlign=middle;whiteSpace=wrap;rounded=0;" parent="1" vertex="1">
          <mxGeometry x="434" y="765.5" width="96" height="25.5" as="geometry" />
        </mxCell>
        <mxCell id="LcIqJ8CEiDiD4LZCDy4y-249" value="" style="endArrow=none;html=1;rounded=0;entryX=0;entryY=1;entryDx=0;entryDy=0;" parent="1" target="LcIqJ8CEiDiD4LZCDy4y-1" edge="1">
          <mxGeometry width="50" height="50" relative="1" as="geometry">
            <mxPoint x="354" y="810" as="sourcePoint" />
            <mxPoint x="340" y="700" as="targetPoint" />
          </mxGeometry>
        </mxCell>
        <mxCell id="LcIqJ8CEiDiD4LZCDy4y-251" value="Reserva_id(PK)" style="text;html=1;align=center;verticalAlign=middle;resizable=0;points=[];autosize=1;strokeColor=none;fillColor=none;" parent="1" vertex="1">
          <mxGeometry x="429" y="705.5" width="110" height="30" as="geometry" />
        </mxCell>
        <mxCell id="LcIqJ8CEiDiD4LZCDy4y-253" value="Pagamento" style="text;html=1;align=center;verticalAlign=middle;whiteSpace=wrap;rounded=0;" parent="1" vertex="1">
          <mxGeometry x="895" y="683.25" width="60" height="30" as="geometry" />
        </mxCell>
        <mxCell id="LcIqJ8CEiDiD4LZCDy4y-254" value="" style="endArrow=none;html=1;rounded=0;startArrow=oval;startFill=1;" parent="1" edge="1">
          <mxGeometry width="50" height="50" relative="1" as="geometry">
            <mxPoint x="870" y="700.5" as="sourcePoint" />
            <mxPoint x="800" y="700" as="targetPoint" />
          </mxGeometry>
        </mxCell>
        <mxCell id="LcIqJ8CEiDiD4LZCDy4y-255" value="" style="endArrow=none;html=1;rounded=0;startArrow=oval;startFill=0;" parent="1" edge="1">
          <mxGeometry width="50" height="50" relative="1" as="geometry">
            <mxPoint x="870" y="730" as="sourcePoint" />
            <mxPoint x="800" y="730" as="targetPoint" />
          </mxGeometry>
        </mxCell>
        <mxCell id="LcIqJ8CEiDiD4LZCDy4y-256" value="" style="endArrow=none;html=1;rounded=0;startArrow=oval;startFill=0;" parent="1" edge="1">
          <mxGeometry width="50" height="50" relative="1" as="geometry">
            <mxPoint x="870" y="754.5" as="sourcePoint" />
            <mxPoint x="800" y="754.5" as="targetPoint" />
          </mxGeometry>
        </mxCell>
        <mxCell id="LcIqJ8CEiDiD4LZCDy4y-257" value="" style="endArrow=none;html=1;rounded=0;startArrow=oval;startFill=0;" parent="1" edge="1">
          <mxGeometry width="50" height="50" relative="1" as="geometry">
            <mxPoint x="870" y="784.5" as="sourcePoint" />
            <mxPoint x="800" y="784.5" as="targetPoint" />
          </mxGeometry>
        </mxCell>
        <mxCell id="LcIqJ8CEiDiD4LZCDy4y-258" value="" style="endArrow=none;html=1;rounded=0;startArrow=oval;startFill=0;" parent="1" edge="1">
          <mxGeometry width="50" height="50" relative="1" as="geometry">
            <mxPoint x="870" y="820" as="sourcePoint" />
            <mxPoint x="800" y="820" as="targetPoint" />
          </mxGeometry>
        </mxCell>
        <mxCell id="LcIqJ8CEiDiD4LZCDy4y-259" value="Data de pagamento" style="text;html=1;align=center;verticalAlign=middle;whiteSpace=wrap;rounded=0;" parent="1" vertex="1">
          <mxGeometry x="875" y="730" width="140" height="50" as="geometry" />
        </mxCell>
        <mxCell id="LcIqJ8CEiDiD4LZCDy4y-260" value="Valor total" style="text;html=1;align=center;verticalAlign=middle;whiteSpace=wrap;rounded=0;" parent="1" vertex="1">
          <mxGeometry x="890" y="770" width="60" height="30" as="geometry" />
        </mxCell>
        <mxCell id="LcIqJ8CEiDiD4LZCDy4y-261" value="Forma de pagamento(cartao,pix ou dinheiro)" style="text;html=1;align=center;verticalAlign=middle;whiteSpace=wrap;rounded=0;" parent="1" vertex="1">
          <mxGeometry x="880" y="713.25" width="260" height="30" as="geometry" />
        </mxCell>
        <mxCell id="LcIqJ8CEiDiD4LZCDy4y-262" value="" style="endArrow=none;html=1;rounded=0;entryX=0;entryY=1;entryDx=0;entryDy=0;" parent="1" target="LcIqJ8CEiDiD4LZCDy4y-2" edge="1">
          <mxGeometry width="50" height="50" relative="1" as="geometry">
            <mxPoint x="60" y="870" as="sourcePoint" />
            <mxPoint x="400" y="790" as="targetPoint" />
          </mxGeometry>
        </mxCell>
        <mxCell id="LcIqJ8CEiDiD4LZCDy4y-263" value="Status(pago,pendente)" style="text;html=1;align=center;verticalAlign=middle;resizable=0;points=[];autosize=1;strokeColor=none;fillColor=none;" parent="1" vertex="1">
          <mxGeometry x="880" y="800" width="150" height="30" as="geometry" />
        </mxCell>
        <mxCell id="LcIqJ8CEiDiD4LZCDy4y-264" value="1,n" style="text;html=1;align=center;verticalAlign=middle;resizable=0;points=[];autosize=1;strokeColor=none;fillColor=none;" parent="1" vertex="1">
          <mxGeometry x="470" y="278" width="40" height="30" as="geometry" />
        </mxCell>
        <mxCell id="LcIqJ8CEiDiD4LZCDy4y-265" value="n,1" style="text;html=1;align=center;verticalAlign=middle;resizable=0;points=[];autosize=1;strokeColor=none;fillColor=none;" parent="1" vertex="1">
          <mxGeometry x="650" y="278" width="40" height="30" as="geometry" />
        </mxCell>
        <mxCell id="LcIqJ8CEiDiD4LZCDy4y-266" value="1,n" style="text;html=1;align=center;verticalAlign=middle;resizable=0;points=[];autosize=1;strokeColor=none;fillColor=none;" parent="1" vertex="1">
          <mxGeometry x="185" y="265" width="40" height="30" as="geometry" />
        </mxCell>
        <mxCell id="LcIqJ8CEiDiD4LZCDy4y-267" value="1,n" style="text;html=1;align=center;verticalAlign=middle;resizable=0;points=[];autosize=1;strokeColor=none;fillColor=none;" parent="1" vertex="1">
          <mxGeometry x="325" y="265" width="40" height="30" as="geometry" />
        </mxCell>
        <mxCell id="LcIqJ8CEiDiD4LZCDy4y-272" value="1,1" style="text;html=1;align=center;verticalAlign=middle;resizable=0;points=[];autosize=1;strokeColor=none;fillColor=none;" parent="1" vertex="1">
          <mxGeometry x="640" y="628" width="40" height="30" as="geometry" />
        </mxCell>
        <mxCell id="LcIqJ8CEiDiD4LZCDy4y-273" value="n,1" style="text;html=1;align=center;verticalAlign=middle;resizable=0;points=[];autosize=1;strokeColor=none;fillColor=none;" parent="1" vertex="1">
          <mxGeometry x="464" y="628" width="40" height="30" as="geometry" />
        </mxCell>
        <mxCell id="LcIqJ8CEiDiD4LZCDy4y-274" value="n,1" style="text;html=1;align=center;verticalAlign=middle;resizable=0;points=[];autosize=1;strokeColor=none;fillColor=none;" parent="1" vertex="1">
          <mxGeometry x="314" y="628" width="40" height="30" as="geometry" />
        </mxCell>
        <mxCell id="LcIqJ8CEiDiD4LZCDy4y-275" value="1,n" style="text;html=1;align=center;verticalAlign=middle;resizable=0;points=[];autosize=1;strokeColor=none;fillColor=none;" parent="1" vertex="1">
          <mxGeometry x="180" y="628" width="40" height="30" as="geometry" />
        </mxCell>
        <mxCell id="LcIqJ8CEiDiD4LZCDy4y-278" value="" style="endArrow=none;html=1;rounded=0;entryX=1;entryY=1;entryDx=0;entryDy=0;" parent="1" target="LcIqJ8CEiDiD4LZCDy4y-3" edge="1">
          <mxGeometry width="50" height="50" relative="1" as="geometry">
            <mxPoint x="800" y="820" as="sourcePoint" />
            <mxPoint x="760" y="590" as="targetPoint" />
          </mxGeometry>
        </mxCell>
        <mxCell id="LcIqJ8CEiDiD4LZCDy4y-279" value="1,1" style="text;html=1;align=center;verticalAlign=middle;resizable=0;points=[];autosize=1;strokeColor=none;fillColor=none;" parent="1" vertex="1">
          <mxGeometry x="760" y="548" width="40" height="30" as="geometry" />
        </mxCell>
        <mxCell id="LcIqJ8CEiDiD4LZCDy4y-280" value="n,1" style="text;html=1;align=center;verticalAlign=middle;resizable=0;points=[];autosize=1;strokeColor=none;fillColor=none;" parent="1" vertex="1">
          <mxGeometry x="760" y="308" width="40" height="30" as="geometry" />
        </mxCell>
        <mxCell id="LcIqJ8CEiDiD4LZCDy4y-281" value="Contem" style="rhombus;whiteSpace=wrap;html=1;" parent="1" vertex="1">
          <mxGeometry x="374" y="410" width="80" height="80" as="geometry" />
        </mxCell>
        <mxCell id="LcIqJ8CEiDiD4LZCDy4y-282" value="faz" style="rhombus;whiteSpace=wrap;html=1;" parent="1" vertex="1">
          <mxGeometry x="140" y="450" width="80" height="80" as="geometry" />
        </mxCell>
        <mxCell id="LcIqJ8CEiDiD4LZCDy4y-287" value="" style="endArrow=none;html=1;rounded=0;entryX=0.5;entryY=1;entryDx=0;entryDy=0;exitX=0.5;exitY=0;exitDx=0;exitDy=0;" parent="1" source="LcIqJ8CEiDiD4LZCDy4y-1" target="LcIqJ8CEiDiD4LZCDy4y-281" edge="1">
          <mxGeometry width="50" height="50" relative="1" as="geometry">
            <mxPoint x="334" y="550" as="sourcePoint" />
            <mxPoint x="384" y="500" as="targetPoint" />
          </mxGeometry>
        </mxCell>
        <mxCell id="LcIqJ8CEiDiD4LZCDy4y-288" value="" style="endArrow=none;html=1;rounded=0;entryX=0.5;entryY=1;entryDx=0;entryDy=0;exitX=0.5;exitY=0;exitDx=0;exitDy=0;" parent="1" source="LcIqJ8CEiDiD4LZCDy4y-281" target="LcIqJ8CEiDiD4LZCDy4y-5" edge="1">
          <mxGeometry width="50" height="50" relative="1" as="geometry">
            <mxPoint x="534.25" y="460" as="sourcePoint" />
            <mxPoint x="529.25" y="358" as="targetPoint" />
          </mxGeometry>
        </mxCell>
        <mxCell id="LcIqJ8CEiDiD4LZCDy4y-289" value="" style="endArrow=none;html=1;rounded=0;entryX=0.5;entryY=1;entryDx=0;entryDy=0;exitX=0.5;exitY=0;exitDx=0;exitDy=0;" parent="1" source="LcIqJ8CEiDiD4LZCDy4y-2" target="LcIqJ8CEiDiD4LZCDy4y-282" edge="1">
          <mxGeometry width="50" height="50" relative="1" as="geometry">
            <mxPoint x="390" y="640" as="sourcePoint" />
            <mxPoint x="440" y="590" as="targetPoint" />
          </mxGeometry>
        </mxCell>
        <mxCell id="LcIqJ8CEiDiD4LZCDy4y-290" value="" style="endArrow=none;html=1;rounded=0;entryX=0.838;entryY=1.05;entryDx=0;entryDy=0;exitX=0.5;exitY=0;exitDx=0;exitDy=0;entryPerimeter=0;" parent="1" source="LcIqJ8CEiDiD4LZCDy4y-282" target="LcIqJ8CEiDiD4LZCDy4y-6" edge="1">
          <mxGeometry width="50" height="50" relative="1" as="geometry">
            <mxPoint x="315" y="512" as="sourcePoint" />
            <mxPoint x="310" y="410" as="targetPoint" />
          </mxGeometry>
        </mxCell>
        <mxCell id="LcIqJ8CEiDiD4LZCDy4y-291" value="1,n" style="text;html=1;align=center;verticalAlign=middle;resizable=0;points=[];autosize=1;strokeColor=none;fillColor=none;" parent="1" vertex="1">
          <mxGeometry x="80" y="568" width="40" height="30" as="geometry" />
        </mxCell>
        <mxCell id="LcIqJ8CEiDiD4LZCDy4y-292" value="1,n" style="text;html=1;align=center;verticalAlign=middle;resizable=0;points=[];autosize=1;strokeColor=none;fillColor=none;" parent="1" vertex="1">
          <mxGeometry x="170" y="308" width="40" height="30" as="geometry" />
        </mxCell>
      </root>
    </mxGraphModel>
  </diagram>
</mxfile>
